 <svg
    width="16"
    height="16"
    viewBox="1 1.3 13 13"
    fill="none"
    xmlns="http://www.w3.org/2000/svg"
>
    <path
    d="M7.5 12.1667C10.2614 12.1667 12.5 10.1146 12.5 7.58333C12.5 5.05203 10.2614 3 7.5 3C4.73858 3 2.5 5.05203 2.5 7.58333C2.5 8.79922 3.0165 9.90453 3.85935 10.725C4.04484 10.9055 4.16919 11.1521 4.11883 11.406C4.03487 11.8293 3.84407 12.214 3.57544 12.5311C3.66211 12.5466 3.75 12.5588 3.8387 12.5674C3.94653 12.5779 4.05599 12.5833 4.16667 12.5833C4.87889 12.5833 5.53898 12.3599 6.08065 11.9794C6.53059 12.1013 7.00696 12.1667 7.5 12.1667Z"
    stroke="rgba(51,51,51,0.8)"
    stroke-linecap="round"
    stroke-linejoin="round"
    stroke-width="0.8"
    />
    <path
    fill-rule="evenodd"
    clip-rule="evenodd"
    d="M6.2 7.6C6.2 7.93137 5.93137 8.2 5.6 8.2C5.26863 8.2 5 7.93137 5 7.6C5 7.26863 5.26863 7 5.6 7C5.93137 7 6.2 7.26863 6.2 7.6ZM8.39995 7.6C8.39995 7.93137 8.13132 8.2 7.79995 8.2C7.46858 8.2 7.19995 7.93137 7.19995 7.6C7.19995 7.26863 7.46858 7 7.79995 7C8.13132 7 8.39995 7.26863 8.39995 7.6ZM9.9999 8.2C10.3313 8.2 10.5999 7.93137 10.5999 7.6C10.5999 7.26863 10.3313 7 9.9999 7C9.66853 7 9.3999 7.26863 9.3999 7.6C9.3999 7.93137 9.66853 8.2 9.9999 8.2Z"
    fill="rgb(51,51,51)"
    fill-opacity=".8"
    />
</svg>