<svg width="11" height="10" viewBox="0 0 11 10" fill="none" xmlns="http://www.w3.org/2000/svg">
<g clip-path="url(#clip0_2835_2038)">
<path d="M5.43538 9.7032C5.59295 9.86799 5.85144 9.8698 6.01255 9.70863L9.96958 5.72276C10.6335 5.05452 10.9982 4.17621 10.9982 3.24901C10.9982 2.37071 10.6636 1.55035 10.0581 0.94188C8.77805 -0.345697 6.65524 -0.307667 5.32738 1.03062L0.725898 5.66481C0.25672 6.13565 0 6.7568 0 7.41236C0 8.03532 0.237245 8.61663 0.667472 9.05126C1.57219 9.96216 3.07356 9.935 4.01191 8.9915L8.26107 4.71406C8.53372 4.4388 8.68421 4.0748 8.68421 3.69269C8.68421 3.32507 8.54434 2.981 8.28939 2.72384C7.75825 2.18962 6.88009 2.20229 6.33124 2.75463L2.72654 6.38375C2.56543 6.54492 2.56366 6.80932 2.72123 6.9723C2.8788 7.1371 3.13729 7.13891 3.29664 6.97774L6.90134 3.34681C7.13327 3.11138 7.49976 3.09871 7.71576 3.31602C7.81313 3.41381 7.86625 3.54601 7.86625 3.68907C7.86625 3.84844 7.80251 4.00055 7.68566 4.11645L3.4365 8.39389C2.8133 9.02047 1.82537 9.04764 1.23403 8.45365C0.959601 8.17839 0.809111 7.80715 0.809111 7.40874C0.809111 6.97955 0.980846 6.56846 1.29245 6.25517L5.89924 1.6246C6.91373 0.605045 8.5231 0.565205 9.48801 1.53587C9.93594 1.98679 10.1838 2.59527 10.1838 3.24901C10.1838 3.95166 9.90407 4.61808 9.39949 5.12877L5.44246 9.11283C5.27958 9.274 5.2778 9.5384 5.43538 9.7032Z" fill="#14932A"/>
</g>
<defs>
<clipPath id="clip0_2835_2038">
<rect width="11" height="10" fill="white"/>
</clipPath>
</defs>
</svg>
