<svg width="16" height="16" viewBox="0 0 16 16" fill="none" xmlns="http://www.w3.org/2000/svg">
<path fill-rule="evenodd" clip-rule="evenodd" d="M12.4804 5.17938C13.4229 5.17938 14.1319 6.03837 13.9532 6.96379L13.2347 10.6844C13.0985 11.3901 12.4807 11.9 11.7619 11.9H5.69995V4.89719C6.60821 4.50212 7.23717 3.72348 8.07079 2.32414C8.48803 1.62672 10.3055 1.96848 10.0837 4.19982C10.0517 4.52965 10.0217 4.75418 9.99724 4.90717C9.97469 5.05023 10.0781 5.17938 10.2153 5.17938H12.4804ZM4.69995 5.16757V11.9H4.5919C3.71232 11.9 3 11.1469 3 10.2171V6.86233C3 6.05364 3.54129 5.37609 4.26112 5.21515C4.26176 5.21447 4.31341 5.2091 4.38535 5.20161C4.47838 5.19194 4.60537 5.17873 4.69995 5.16757Z" fill="#14932A"/>
</svg>
