<svg
    version="1.1"
    xmlns="http://www.w3.org/2000/svg"
    xmlns:xlink="http://www.w3.org/1999/xlink"
    viewBox="0 -4.5 22 22"
>
    <g>
    <path
        d="M8.38184 5.08301L7.34277 6.1377C8.37402 6.22363 9.0459 6.52832 9.55371 7.03613C10.9209 8.40332 10.9131 10.3408 9.56152 11.6924L7.00684 14.2393C5.64746 15.5986 3.72559 15.6064 2.3584 14.2471C0.991212 12.8721 0.999025 10.9502 2.3584 9.59082L3.88965 8.05957C3.6709 7.56738 3.61621 6.98145 3.70215 6.47363L1.40527 8.7627C-0.461913 10.6377-0.477538 13.2939 1.41309 15.1846C3.31152 17.083 5.96777 17.0674 7.83496 15.2002L10.5068 12.5205C12.3818 10.6455 12.3975 7.98926 10.499 6.09863C10.0068 5.60645 9.38184 5.25488 8.38184 5.08301ZM8.18652 11.5205L9.22559 10.4658C8.19434 10.3877 7.52246 10.0752 7.01465 9.56738C5.64746 8.2002 5.65527 6.2627 7.00684 4.91113L9.55371 2.36426C10.9209 1.00488 12.8428 0.997072 14.21 2.36426C15.5771 3.73145 15.5615 5.66113 14.21 7.0127L12.6787 8.54395C12.8975 9.04395 12.9443 9.62207 12.8662 10.1299L15.1631 7.84082C17.0303 5.96582 17.0459 3.31738 15.1553 1.41895C13.2568-0.479491 10.6006-0.463866 8.72559 1.41113L6.06152 4.08301C4.18652 5.95801 4.1709 8.61426 6.06934 10.5049C6.56152 10.9971 7.18652 11.3486 8.18652 11.5205Z"
        fill="rgb(51,51,51)"
        fill-opacity=".8"
    />
    </g>
</svg>